<svg width="17" height="17" viewBox="0 0 17 17" fill="none" xmlns="http://www.w3.org/2000/svg">
<g clip-path="url(#clip0_3609_154)">
<path d="M0.451372 15.5763C0.182876 15.8448 0.182876 16.2802 0.451372 16.5487C0.719855 16.8171 1.15515 16.8171 1.42363 16.5487L8.5 9.47227L15.5763 16.5487C15.8448 16.8171 16.2802 16.8171 16.5487 16.5487C16.8171 16.2802 16.8171 15.8448 16.5487 15.5763L9.47227 8.5L16.5487 1.42363C16.8171 1.15515 16.8171 0.719855 16.5487 0.451372C16.2802 0.182876 15.8448 0.182876 15.5763 0.451372L8.5 7.52774L1.42363 0.451372C1.15515 0.182876 0.719855 0.182876 0.451372 0.451372C0.182876 0.719855 0.182876 1.15515 0.451372 1.42363L7.52774 8.5L0.451372 15.5763Z" fill="#202020"/>
</g>
<defs>
<clipPath id="clip0_3609_154">
<rect width="17" height="17" fill="white"/>
</clipPath>
</defs>
</svg>
