<svg width="20" height="20" viewBox="0 0 20 20" fill="none" xmlns="http://www.w3.org/2000/svg">
<path d="M1.66661 9.99983C1.66701 7.78983 2.54511 5.67047 4.10781 4.10776C5.67051 2.54505 7.78991 1.66694 9.99991 1.6665V3.33316C8.68151 3.33346 7.39271 3.72453 6.29651 4.45694C5.20021 5.18936 4.34571 6.23027 3.84071 7.44816C3.50561 8.25714 3.33321 9.1242 3.33321 9.99983H1.66661ZM18.3333 8.33316V4.1665C18.3333 3.94548 18.2455 3.73352 18.0892 3.57724C17.9329 3.42096 17.7209 3.33316 17.4999 3.33316H13.3333C13.1122 3.33316 12.9003 3.42096 12.744 3.57724C12.5877 3.73352 12.4999 3.94548 12.4999 4.1665V7.49983C12.4999 7.72084 12.5877 7.9328 12.744 8.08909C12.9003 8.24537 13.1122 8.33316 13.3333 8.33316H14.9999C14.9999 10.1012 14.2975 11.7969 13.0473 13.0472C11.7971 14.2974 10.1014 14.9998 8.33321 14.9998V13.3331C8.33321 13.1121 8.24541 12.9001 8.08921 12.7439C7.93291 12.5876 7.72091 12.4998 7.49991 12.4998H4.16661C3.94561 12.4998 3.73361 12.5876 3.57731 12.7439C3.42101 12.9001 3.33321 13.1121 3.33321 13.3331V17.4998C3.33321 17.7208 3.42101 17.9328 3.57731 18.089C3.73361 18.2453 3.94561 18.3331 4.16661 18.3331H8.33321C13.8558 18.3331 18.3333 13.8556 18.3333 8.33316Z" fill="#39AE68"/>
<path d="M5.3808 8.08667C5.1293 8.69319 4.9999 9.34338 5 10H6.5C6.4999 9.54034 6.5903 9.08517 6.7662 8.66048C6.9421 8.23579 7.1999 7.84991 7.5249 7.52488C7.8499 7.19986 8.2358 6.94205 8.6605 6.7662C9.0852 6.59035 9.5403 6.49989 10 6.5V5C9.0111 5.00005 8.0445 5.29333 7.2223 5.84275C6.4001 6.39217 5.7592 7.17306 5.3808 8.08667Z" fill="#39AE68"/>
</svg>
